<?xml version="1.0" encoding="UTF-8"?>
<svg width="44px" height="60px" viewBox="0 0 44 60" version="1.1" xmlns="http://www.w3.org/2000/svg" xmlns:xlink="http://www.w3.org/1999/xlink">
    <!-- Generator: sketchtool 52.3 (67297) - http://www.bohemiancoding.com/sketch -->
    <title>A9F47AC3-9086-4FA4-BB63-D90EA1C88F5F@1x</title>
    <desc>Created with sketchtool.</desc>
    <g id="Page-1" stroke="none" stroke-width="1" fill="none" fill-rule="evenodd" stroke-linecap="round" stroke-linejoin="round">
        <g id="Home2" transform="translate(-319.000000, -843.000000)" stroke="#020613" stroke-width="1.26000005">
            <g id="Group-10" transform="translate(320.000000, 844.000000)">
                <g id="business-icon">
                    <path d="M3,3.85686837 L3,1.92843419 C3,0.867827407 3.85606674,0 4.90293212,0 L40.0976997,0 C41.1439333,0 42,0.867827407 42,1.92843419 L42,52.0715658 C42,53.1321726 41.1439333,54 40.0976997,54 L38.6711324,54" id="Stroke-1"></path>
                    <path d="M36.4728657,58 L2.52713429,58 C1.13657865,58 0,56.8471665 0,55.4381479 L0,6.56185212 C0,5.15219299 1.13657865,4 2.52713429,4 L36.4728657,4 C37.8627896,4 39,5.15219299 39,6.56185212 L39,55.4381479 C39,56.8471665 37.8627896,58 36.4728657,58 Z" id="Stroke-3"></path>
                    <path d="M5,19 L19,19" id="Stroke-5"></path>
                    <path d="M5,30 L33,30" id="Stroke-7"></path>
                    <path d="M5,35 L33,35" id="Stroke-9"></path>
                    <path d="M5,40 L33,40" id="Stroke-11"></path>
                    <path d="M5,46 L33,46" id="Stroke-13"></path>
                    <path d="M35,11.5 C35,13.4328728 33.4328728,15 31.5,15 C29.5665073,15 28,13.4328728 28,11.5 C28,9.56712717 29.5665073,8 31.5,8 C33.4328728,8 35,9.56712717 35,11.5 Z" id="Stroke-15"></path>
                </g>
            </g>
        </g>
    </g>
</svg>