<?xml version="1.0" encoding="UTF-8"?>
<svg width="68px" height="56px" viewBox="0 0 68 56" version="1.1" xmlns="http://www.w3.org/2000/svg" xmlns:xlink="http://www.w3.org/1999/xlink">
    <!-- Generator: sketchtool 52.3 (67297) - http://www.bohemiancoding.com/sketch -->
    <title>CF898188-EE42-415C-B104-FBF887761974@1x</title>
    <desc>Created with sketchtool.</desc>
    <g id="Page-1" stroke="none" stroke-width="1" fill="none" fill-rule="evenodd" stroke-linecap="round" stroke-linejoin="round">
        <g id="Home2" transform="translate(-902.000000, -845.000000)" stroke="#020613" stroke-width="1.25999995">
            <g id="Group-11" transform="translate(903.000000, 846.000000)">
                <g id="health-icon">
                    <path d="M54.4824971,9.24191163 C54.4824971,9.24191163 49.3426686,9.24191163 47.28724,6.1614 C45.2305543,3.08026047 42.1467829,-0.000251162784 38.0352971,-0.000251162784 L26.7272971,-0.000251162784 C26.7272971,-0.000251162784 24.67124,-0.000251162784 24.67124,2.05363256 C24.67124,5.13414419 26.7272971,6.1614 28.7833543,6.1614 L34.9515257,6.1614" id="Stroke-1"></path>
                    <path d="M45.2307429,11.2957953 L39.0625714,6.1614 C39.0625714,6.1614 37.0071429,4.10751628 34.9510857,6.1614 C32.8950286,8.21528372 35.9788,10.2691674 35.9788,10.2691674 L45.2307429,17.4574465 C45.2307429,17.4574465 47.2868,19.5107023 51.3989143,19.5107023 L55.5104,19.5107023" id="Stroke-3"></path>
                    <path d="M63.9049714,22.5916535 L57.3967429,22.5916535 C56.3589714,22.5916535 55.5110286,21.7439791 55.5110286,20.7079326 L55.5110286,7.01830465 C55.5110286,5.98225814 56.3589714,5.13458372 57.3967429,5.13458372 L63.9049714,5.13458372 C64.9414857,5.13458372 65.7906857,5.98225814 65.7906857,7.01830465 L65.7906857,20.7079326 C65.7906857,21.7439791 64.9414857,22.5916535 63.9049714,22.5916535 Z" id="Stroke-5"></path>
                    <path d="M11.3074971,44.1563023 C11.3074971,44.1563023 16.4479543,44.1563023 18.5033829,47.236814 C20.55944,50.3179535 23.6432114,53.3984651 27.7553257,53.3984651 L39.0626971,53.3984651 C39.0626971,53.3984651 41.1193829,53.3984651 41.1193829,51.3445814 C41.1193829,48.2640698 39.0626971,47.236814 37.0072686,47.236814 L30.8390971,47.236814" id="Stroke-7"></path>
                    <path d="M20.5593143,42.1024814 L26.7274857,47.2368767 C26.7274857,47.2368767 28.7835429,49.2907605 30.8389714,47.2368767 C32.8950286,45.182993 29.8112571,43.1291093 29.8112571,43.1291093 L20.5593143,35.9408302 C20.5593143,35.9408302 18.5032571,33.8875744 14.3911429,33.8875744 L10.2796571,33.8875744" id="Stroke-9"></path>
                    <path d="M1.88571429,30.8065605 L8.39394286,30.8065605 C9.43108571,30.8065605 10.2796571,31.6542349 10.2796571,32.6902814 L10.2796571,46.3799093 C10.2796571,47.4159558 9.43108571,48.2636302 8.39394286,48.2636302 L1.88571429,48.2636302 C0.848571429,48.2636302 0,47.4159558 0,46.3799093 L0,32.6902814 C0,31.6542349 0.848571429,30.8065605 1.88571429,30.8065605 Z" id="Stroke-11"></path>
                    <path d="M41.6888686,29.8472442 L31.8177829,38.9242674 L21.9466971,29.8472442 L21.4256114,29.2708256 C20.5116686,28.1311744 19.9635543,26.6832209 19.9635543,25.1090581 C19.9635543,21.4301512 22.9492686,18.4482209 26.6320686,18.4482209 C28.4084114,18.4482209 30.0225829,19.1420581 31.2174971,20.2735465 L32.0076114,20.7419651 C33.2301829,19.3360814 35.0316686,18.4482209 37.0424686,18.4482209 C40.72464,18.4482209 43.7103543,21.4301512 43.7103543,25.1090581 C43.7103543,26.4885698 43.2904686,27.7701279 42.5707543,28.8331744 L41.6888686,29.8472442 Z" id="Stroke-13"></path>
                </g>
            </g>
        </g>
    </g>
</svg>