<?xml version="1.0" encoding="UTF-8"?>
<svg width="60px" height="59px" viewBox="0 0 60 59" version="1.1" xmlns="http://www.w3.org/2000/svg" xmlns:xlink="http://www.w3.org/1999/xlink">
    <!-- Generator: sketchtool 52.3 (67297) - http://www.bohemiancoding.com/sketch -->
    <title>2A44C906-C06A-4C74-BB48-D4E458BC89CB@1x</title>
    <desc>Created with sketchtool.</desc>
    <g id="Page-1" stroke="none" stroke-width="1" fill="none" fill-rule="evenodd" stroke-linecap="round" stroke-linejoin="round">
        <g id="Home2" transform="translate(-1161.000000, -843.000000)" stroke="#020613" stroke-width="1.25999995">
            <g id="Group-21" transform="translate(1162.000000, 844.000000)">
                <g id="life-icon">
                    <path d="M0.209934783,45.8901099 L57.5795,45.8901099" id="Stroke-1"></path>
                    <path d="M7.77515217,52.2637363 L50.0142826,52.2637363" id="Stroke-3"></path>
                    <g id="Group-18">
                        <path d="M17.2316739,57.3626374 L40.5577609,57.3626374" id="Stroke-4"></path>
                        <path d="M9.71815217,40.9225692 C8.27319565,38.0059978 7.45993478,34.7146571 7.45993478,31.230833 C7.45993478,19.2624374 17.0570435,9.5605033 28.8947174,9.5605033 C40.7330217,9.5605033 50.3295,19.2624374 50.3295,31.230833 C50.3295,34.2226132 49.7299565,37.0728989 48.6449783,39.6656901" id="Stroke-6"></path>
                        <path d="M29,0 L29,3.82417582" id="Stroke-8"></path>
                        <path d="M8.75528913,7.94988791 L11.4295935,10.6542176" id="Stroke-10"></path>
                        <path d="M0,28.043956 L3.7826087,28.043956" id="Stroke-12"></path>
                        <path d="M56.7391304,29.3186813 L52.9565217,29.3186813" id="Stroke-14"></path>
                        <path d="M48.8759065,8.85118242 L46.2009717,11.5555121" id="Stroke-16"></path>
                    </g>
                </g>
            </g>
        </g>
    </g>
</svg>