<?xml version="1.0" encoding="UTF-8"?>
<svg width="62px" height="51px" viewBox="0 0 62 51" version="1.1" xmlns="http://www.w3.org/2000/svg" xmlns:xlink="http://www.w3.org/1999/xlink">
    <!-- Generator: sketchtool 52.3 (67297) - http://www.bohemiancoding.com/sketch -->
    <title>2CD5B282-EB08-40A5-8238-C3650F539363@1x</title>
    <desc>Created with sketchtool.</desc>
    <defs>
        <polygon id="path-1" points="0.6002 0.3791 59.8832 0.3791 59.8832 1 0.6002 1"></polygon>
    </defs>
    <g id="Page-1" stroke="none" stroke-width="1" fill="none" fill-rule="evenodd">
        <g id="Home2" transform="translate(-605.000000, -845.000000)">
            <g id="Group-23" transform="translate(605.000000, 845.000000)">
                <g id="relationships-icon">
                    <path d="M6,22.208 L6,22" id="Stroke-1" stroke="#020613" stroke-width="1.2" stroke-linecap="round" stroke-linejoin="round"></path>
                    <path d="M6,23 L6,27" id="Stroke-2" stroke="#020613" stroke-width="1.2" stroke-linecap="round" stroke-linejoin="round"></path>
                    <g id="Group-88">
                        <path d="M6.0523,27.0319 L6.0523,31.1419 C6.0523,36.3459 10.2713,40.5659 15.4763,40.5659 C20.6803,40.5659 24.9003,36.3459 24.9003,31.1419 L24.9003,21.8319" id="Stroke-3" stroke="#020613" stroke-width="1.2" stroke-linecap="round" stroke-linejoin="round"></path>
                        <path d="M23.6725,8.5436 C23.5025,8.3776 23.3255,8.2196 23.1465,8.0646" id="Stroke-5" stroke="#020613" stroke-width="1.2" stroke-linecap="round" stroke-linejoin="round"></path>
                        <path d="M19.734,6.0114 C20.992,6.5014 22.142,7.1984 23.146,8.0644" id="Stroke-7" stroke="#020613" stroke-width="1.2" stroke-linecap="round" stroke-linejoin="round"></path>
                        <path d="M3.7262,21.8317 L3.7262,16.9527 C3.7262,11.9667 6.8362,7.7177 11.2182,6.0117" id="Stroke-9" stroke="#020613" stroke-width="1.2" stroke-linecap="round" stroke-linejoin="round"></path>
                        <path d="M19.734,6.0114 C18.413,5.4964 16.979,5.2034 15.476,5.2034 C13.972,5.2034 12.539,5.4964 11.218,6.0114" id="Stroke-11" stroke="#020613" stroke-width="1.2" stroke-linecap="round" stroke-linejoin="round"></path>
                        <path d="M27.2252,22.5114 L27.2252,16.9524 C27.2252,13.6544 25.8622,10.6784 23.6722,8.5434" id="Stroke-13" stroke="#020613" stroke-width="1.2" stroke-linecap="round" stroke-linejoin="round"></path>
                        <path d="M22.6217,12.3781 C20.9327,18.3851 15.4197,22.7911 8.8717,22.7911 C7.9057,22.7911 6.9637,22.6931 6.0527,22.5111" id="Stroke-15" stroke="#020613" stroke-width="1.2" stroke-linecap="round" stroke-linejoin="round"></path>
                        <path d="M6.0523,22.5114 C5.2493,22.3504 4.4733,22.1204 3.7263,21.8314" id="Stroke-17" stroke="#020613" stroke-width="1.2" stroke-linecap="round" stroke-linejoin="round"></path>
                        <path d="M25.442,22.1784 C25.253,21.9204 25.072,21.6554 24.9,21.3844" id="Stroke-19" stroke="#020613" stroke-width="1.2" stroke-linecap="round" stroke-linejoin="round"></path>
                        <path d="M24.9,21.384 C23.502,19.176 22.689,16.56 22.689,13.753 C22.689,13.335 22.711,12.922 22.746,12.514" id="Stroke-21" stroke="#020613" stroke-width="1.2" stroke-linecap="round" stroke-linejoin="round"></path>
                        <path d="M19.734,6.0114 C19.792,5.7274 19.823,5.4334 19.823,5.1324 C19.823,2.7324 17.877,0.7854 15.476,0.7854 C13.075,0.7854 11.13,2.7324 11.13,5.1324 C11.13,5.4334 11.16,5.7274 11.218,6.0114" id="Stroke-23" stroke="#020613" stroke-width="1.2" stroke-linecap="round" stroke-linejoin="round"></path>
                        <path d="M24.8775,27.0319 C25.2285,27.2259 25.6325,27.3369 26.0625,27.3369 C27.4225,27.3369 28.5235,26.2349 28.5235,24.8759 C28.5235,23.5159 27.4225,22.4149 26.0625,22.4149 C25.7235,22.4149 25.3985,22.4839 25.1055,22.6079" id="Stroke-25" stroke="#020613" stroke-width="1.2" stroke-linecap="round" stroke-linejoin="round"></path>
                        <path d="M6.0523,22.7189 C5.7033,22.5319 5.3123,22.4149 4.8893,22.4149 C3.5303,22.4149 2.4283,23.5159 2.4283,24.8759 C2.4283,26.2349 3.5303,27.3369 4.8893,27.3369 C5.3123,27.3369 5.7033,27.2199 6.0523,27.0319" id="Stroke-27" stroke="#020613" stroke-width="1.2" stroke-linecap="round" stroke-linejoin="round"></path>
                        <path d="M20.9391,24.6428 C20.9391,25.5818 20.1781,26.3418 19.2411,26.3418 C18.3021,26.3418 17.5421,25.5818 17.5421,24.6428" id="Stroke-29" stroke="#020613" stroke-width="1.2" stroke-linecap="round" stroke-linejoin="round"></path>
                        <path d="M12.9664,24.6428 C12.9664,25.5818 12.2054,26.3418 11.2674,26.3418 C10.3284,26.3418 9.5684,25.5818 9.5684,24.6428" id="Stroke-31" stroke="#020613" stroke-width="1.2" stroke-linecap="round" stroke-linejoin="round"></path>
                        <path d="M18.3082,32.1891 C18.3082,33.7541 17.0392,35.0221 15.4762,35.0221 C13.9112,35.0221 12.6422,33.7541 12.6422,32.1891" id="Stroke-33" stroke="#020613" stroke-width="1.2" stroke-linecap="round" stroke-linejoin="round"></path>
                        <polyline id="Stroke-35" stroke="#020613" stroke-width="1.2" stroke-linecap="round" stroke-linejoin="round" points="4.2398 27.3366 4.2398 32.1896 4.2398 36.5586 7.4708 36.5586"></polyline>
                        <path d="M27.2252,27.0446 L27.2252,36.0726" id="Stroke-37" stroke="#020613" stroke-width="1.2" stroke-linecap="round" stroke-linejoin="round"></path>
                        <path d="M27.2252,36.5588 L23.4102,36.5588" id="Stroke-39" stroke="#020613" stroke-width="1.2" stroke-linecap="round" stroke-linejoin="round"></path>
                        <path d="M13.3365,40.3215 L13.3365,44.5915 C13.3365,45.6305 14.1785,46.4725 15.2175,46.4725 C16.2565,46.4725 17.0985,45.6305 17.0985,44.5915 L17.0985,41.1685" id="Stroke-41" stroke="#020613" stroke-width="1.2" stroke-linecap="round" stroke-linejoin="round"></path>
                        <path d="M12.9664,44.4372 C12.9664,44.4372 6.8314,43.3892 4.2404,49.9262" id="Stroke-43" stroke="#020613" stroke-width="1.2" stroke-linecap="round" stroke-linejoin="round"></path>
                        <path d="M17.4684,44.4372 C17.4684,44.4372 23.6024,43.3892 26.1944,49.9262" id="Stroke-45" stroke="#020613" stroke-width="1.2" stroke-linecap="round" stroke-linejoin="round"></path>
                        <g id="Group-49" transform="translate(0.000000, 50.000000)">
                            <mask id="mask-2" fill="white">
                                <use xlink:href="#path-1"></use>
                            </mask>
                            <g id="Clip-48"></g>
                            <path d="M0.6002,0.3791 L59.8832,0.3791" id="Stroke-47" stroke="#020613" stroke-width="1.2" stroke-linecap="round" stroke-linejoin="round" mask="url(#mask-2)"></path>
                        </g>
                        <path d="M36.0553,20.6818 L36.0553,20.4548" id="Stroke-50" stroke="#020613" stroke-width="1.2" stroke-linecap="round" stroke-linejoin="round"></path>
                        <path d="M36.0553,18.5256 L36.0553,25.3926" id="Stroke-52" stroke="#020613" stroke-width="1.2" stroke-linecap="round" stroke-linejoin="round"></path>
                        <path d="M36.0553,25.3928 L36.0553,29.8818 C36.0553,35.5668 40.6633,40.1758 46.3483,40.1758 C52.0333,40.1758 56.6423,35.5668 56.6423,29.8818 L56.6423,18.6358" id="Stroke-54" stroke="#020613" stroke-width="1.2" stroke-linecap="round" stroke-linejoin="round"></path>
                        <path d="M56.6178,25.3928 C57.0018,25.6048 57.4418,25.7258 57.9118,25.7258 C59.3968,25.7258 60.5998,24.5218 60.5998,23.0378 C60.5998,21.5528 59.3968,20.3498 57.9118,20.3498 C57.5418,20.3498 57.1878,20.4248 56.8658,20.5608" id="Stroke-56" stroke="#020613" stroke-width="1.2" stroke-linecap="round" stroke-linejoin="round"></path>
                        <path d="M36.0553,25.3928 C35.6753,25.5988 35.2473,25.7258 34.7843,25.7258 C33.3003,25.7258 32.0963,24.5218 32.0963,23.0378 C32.0963,21.5528 33.3003,20.3498 34.7843,20.3498 C35.2473,20.3498 36.4853,20.7178 36.0553,20.6818 C33.3003,20.4508 33.3293,17.1178 33.3963,14.2388 C33.4763,10.7708 36.3703,10.4428 36.3703,10.4428 C36.3703,10.4428 38.1883,10.0828 39.2153,11.3278" id="Stroke-58" stroke="#020613" stroke-width="1.2" stroke-linecap="round" stroke-linejoin="round"></path>
                        <path d="M38.566,11.2785 C36.055,13.7155 36.055,16.0005 36.055,18.1415" id="Stroke-60" stroke="#020613" stroke-width="1.2" stroke-linecap="round" stroke-linejoin="round"></path>
                        <path d="M56.6422,18.1418 C56.6422,15.8288 55.4872,13.3018 54.2002,11.5828" id="Stroke-62" stroke="#020613" stroke-width="1.2" stroke-linecap="round" stroke-linejoin="round"></path>
                        <path d="M52.316,22.7834 C52.316,23.8084 51.485,24.6394 50.461,24.6394 C49.435,24.6394 48.605,23.8084 48.605,22.7834" id="Stroke-64" stroke="#020613" stroke-width="1.2" stroke-linecap="round" stroke-linejoin="round"></path>
                        <path d="M43.607,22.7834 C43.607,23.8084 42.776,24.6394 41.752,24.6394 C40.726,24.6394 39.895,23.8084 39.895,22.7834" id="Stroke-66" stroke="#020613" stroke-width="1.2" stroke-linecap="round" stroke-linejoin="round"></path>
                        <path d="M49.443,31.0261 C49.443,32.7351 48.057,34.1211 46.348,34.1211 C44.639,34.1211 43.254,32.7351 43.254,31.0261" id="Stroke-68" stroke="#020613" stroke-width="1.2" stroke-linecap="round" stroke-linejoin="round"></path>
                        <path d="M44.0113,39.9089 L44.0113,44.5729 C44.0113,45.7069 44.9313,46.6279 46.0663,46.6279 C47.2003,46.6279 48.1203,45.7069 48.1203,44.5729 L48.1203,40.8339" id="Stroke-70" stroke="#020613" stroke-width="1.2" stroke-linecap="round" stroke-linejoin="round"></path>
                        <path d="M39.9342,44.8332 C37.9842,45.5022 35.4132,47.0262 34.0772,50.4002" id="Stroke-72" stroke="#020613" stroke-width="1.2" stroke-linecap="round" stroke-linejoin="round"></path>
                        <path d="M52.2291,44.7243 C54.2571,45.3303 56.6401,46.8293 58.0561,50.4003" id="Stroke-74" stroke="#020613" stroke-width="1.2" stroke-linecap="round" stroke-linejoin="round"></path>
                        <path d="M53.61,11.631 C52.137,14.159 49.398,15.074 46.261,15.074 C43.328,15.074 40.743,13.587 39.215,11.327 C39.215,11.327 36.186,6.779 41.752,3.507 C47.316,0.235 57.403,6.779 57.403,6.779 L53.61,11.631 Z" id="Stroke-76" stroke="#020613" stroke-width="1.2" stroke-linecap="round" stroke-linejoin="round"></path>
                        <path d="M42.7066,14.2956 C42.7066,14.2956 44.6576,10.9026 54.5756,10.3946" id="Stroke-78" stroke="#020613" stroke-width="1.2" stroke-linecap="round" stroke-linejoin="round"></path>
                        <path d="M40.5855,12.174 C40.5855,12.174 43.1495,7.716 56.1845,7.048" id="Stroke-80" stroke="#020613" stroke-width="1.2" stroke-linecap="round" stroke-linejoin="round"></path>
                        <path d="M38.5494,9.611 C38.5494,9.611 40.9734,5.397 53.2904,4.767" id="Stroke-82" stroke="#020613" stroke-width="1.2" stroke-linecap="round" stroke-linejoin="round"></path>
                        <path d="M43.607,41.1897 C43.607,41.1897 40.88,40.3277 39.215,42.0517 C39.215,42.0517 39.13,46.1557 46.066,46.6277" id="Stroke-84" stroke="#020613" stroke-width="1.2" stroke-linecap="round" stroke-linejoin="round"></path>
                        <path d="M48.525,41.1897 C48.525,41.1897 51.252,40.3277 52.917,42.0517 C52.917,42.0517 53.002,46.1557 46.066,46.6277" id="Stroke-86" stroke="#020613" stroke-width="1.2" stroke-linecap="round" stroke-linejoin="round"></path>
                    </g>
                </g>
            </g>
        </g>
    </g>
</svg>